#Comment line ignore any data following # character 
#Hierarchical Translation and Rotation (.htr) file 
[Header]	
#Header keywords are followed by a single value 
FileType HTR		#Single word string
DataType HTRS		#Translation followed by rotation and scale data
FileVersion 1		#integer
NumSegments 84		#integer
NumFrames 2		#integer
DataFrameRate 30		#integer, data frame rate in this file
EulerRotationOrder ZYX
CalibrationUnits mm
RotationUnits Degrees
GlobalAxisofGravity Y
BoneLengthAxis Y
ScaleFactor 1.00
[SegmentNames&Hierarchy]
#CHILD	PARENT
MASTER GLOBAL
root MASTER
chest root
L_mid_tent01 root
R_mid_tent01 root
spine01 root
Bip01_Neck chest
L_humerus chest
R_humerus chest
weapon_bone chest
Bip01_Head Bip01_Neck
eye_left_bone Bip01_Head
eye_right_bone Bip01_Head
L_forearm L_humerus
L_front_hand L_forearm
L_weapon_bone L_forearm
L_front_hand01_01 L_front_hand
L_front_hand02_01 L_front_hand
L_front_hand03_01 L_front_hand
L_front_hand01_02 L_front_hand01_01
L_front_hand02_02 L_front_hand02_01
L_front_hand03_02 L_front_hand03_01
R_forearm R_humerus
R_front_hand R_forearm
R_weapon_bone R_forearm
R_front_hand01_01 R_front_hand
R_front_hand02_01 R_front_hand
R_front_hand03_01 R_front_hand
R_front_hand01_02 R_front_hand01_01
R_front_hand02_02 R_front_hand02_01
R_front_hand03_02 R_front_hand03_01
null_rope01_connect L_mid_tent01
Rope1_Seg01 null_rope01_connect
Rope1_Seg02 Rope1_Seg01
Rope1_Seg03 Rope1_Seg02
Rope1_Seg04 Rope1_Seg03
Rope1_Seg05 Rope1_Seg04
Rope1_Seg06 Rope1_Seg05
Rope1_Seg07 Rope1_Seg06
Rope1_Seg09 Rope1_Seg07
L_mid_hand01 Rope1_Seg09
L_mid_hand02 Rope1_Seg09
L_mid_hand03 Rope1_Seg09
null_rope02_connect R_mid_tent01
Rope2_Seg01 null_rope02_connect
Rope2_Seg02 Rope2_Seg01
Rope2_Seg03 Rope2_Seg02
Rope2_Seg04 Rope2_Seg03
Rope2_Seg05 Rope2_Seg04
Rope2_Seg06 Rope2_Seg05
Rope2_Seg07 Rope2_Seg06
Rope2_Seg09 Rope2_Seg07
R_mid_hand01 Rope2_Seg09
R_mid_hand02 Rope2_Seg09
R_mid_hand03 Rope2_Seg09
spine02 spine01
spine03 spine02
pelvis spine03
null_rope03_connect pelvis
null_rope04_connect pelvis
Rope3_Seg01 null_rope03_connect
Rope3_Seg02 Rope3_Seg01
Rope3_Seg03 Rope3_Seg02
Rope3_Seg04 Rope3_Seg03
Rope3_Seg05 Rope3_Seg04
Rope3_Seg06 Rope3_Seg05
Rope3_Seg07 Rope3_Seg06
Rope3_Seg08 Rope3_Seg07
Rope3_Seg09 Rope3_Seg08
R_rear_hand01 Rope3_Seg09
R_rear_hand02 Rope3_Seg09
R_rear_hand03 Rope3_Seg09
Rope4_Seg01 null_rope04_connect
Rope4_Seg02 Rope4_Seg01
Rope4_Seg03 Rope4_Seg02
Rope4_Seg04 Rope4_Seg03
Rope4_Seg05 Rope4_Seg04
Rope4_Seg06 Rope4_Seg05
Rope4_Seg07 Rope4_Seg06
Rope4_Seg08 Rope4_Seg07
Rope4_Seg09 Rope4_Seg08
L_rear_hand01 Rope4_Seg09
L_rear_hand02 Rope4_Seg09
L_rear_hand03 Rope4_Seg09
[BasePosition]
#SegmentName Tx, Ty, Tz, Rx, Ry, Rz, BoneLength
MASTER 0.000000 0.000000 0.000000 -90.000000 0.000000 0.000000 10.000000 
root 0.000000 0.000000 0.000000 0.000000 0.000000 0.000000 10.000000 
chest 0.000000 0.000000 0.000000 0.000000 0.000000 0.000000 10.000000 
L_mid_tent01 0.000000 0.000000 0.000000 0.000000 0.000000 0.000000 10.000000 
R_mid_tent01 0.000000 0.000000 0.000000 0.000000 0.000000 0.000000 10.000000 
spine01 0.000000 0.000000 0.000000 0.000000 0.000000 0.000000 10.000000 
Bip01_Neck 0.000000 0.000000 0.000000 0.000000 0.000000 0.000000 10.000000 
L_humerus 0.000000 0.000000 0.000000 0.000000 0.000000 0.000000 10.000000 
R_humerus 0.000000 0.000000 0.000000 0.000000 0.000000 0.000000 10.000000 
weapon_bone 0.000000 0.000000 0.000000 0.000000 0.000000 0.000000 10.000000 
Bip01_Head 0.000000 0.000000 0.000000 0.000000 0.000000 0.000000 10.000000 
eye_left_bone 0.000000 0.000000 0.000000 0.000000 0.000000 0.000000 10.000000 
eye_right_bone 0.000000 0.000000 0.000000 0.000000 0.000000 0.000000 10.000000 
L_forearm 0.000000 0.000000 0.000000 0.000000 0.000000 0.000000 10.000000 
L_front_hand 0.000000 0.000000 0.000000 0.000000 0.000000 0.000000 10.000000 
L_weapon_bone 0.000000 0.000000 0.000000 0.000000 0.000000 0.000000 10.000000 
L_front_hand01_01 0.000000 0.000000 0.000000 0.000000 0.000000 0.000000 10.000000 
L_front_hand02_01 0.000000 0.000000 0.000000 0.000000 0.000000 0.000000 10.000000 
L_front_hand03_01 0.000000 0.000000 0.000000 0.000000 0.000000 0.000000 10.000000 
L_front_hand01_02 0.000000 0.000000 0.000000 0.000000 0.000000 0.000000 10.000000 
L_front_hand02_02 0.000000 0.000000 0.000000 0.000000 0.000000 0.000000 10.000000 
L_front_hand03_02 0.000000 0.000000 0.000000 0.000000 0.000000 0.000000 10.000000 
R_forearm 0.000000 0.000000 0.000000 0.000000 0.000000 0.000000 10.000000 
R_front_hand 0.000000 0.000000 0.000000 0.000000 0.000000 0.000000 10.000000 
R_weapon_bone 0.000000 0.000000 0.000000 0.000000 0.000000 0.000000 10.000000 
R_front_hand01_01 0.000000 0.000000 0.000000 0.000000 0.000000 0.000000 10.000000 
R_front_hand02_01 0.000000 0.000000 0.000000 0.000000 0.000000 0.000000 10.000000 
R_front_hand03_01 0.000000 0.000000 0.000000 0.000000 0.000000 0.000000 10.000000 
R_front_hand01_02 0.000000 0.000000 0.000000 0.000000 0.000000 0.000000 10.000000 
R_front_hand02_02 0.000000 0.000000 0.000000 0.000000 0.000000 0.000000 10.000000 
R_front_hand03_02 0.000000 0.000000 0.000000 0.000000 0.000000 0.000000 10.000000 
null_rope01_connect 0.000000 0.000000 0.000000 0.000000 0.000000 0.000000 10.000000 
Rope1_Seg01 0.000000 0.000000 0.000000 0.000000 0.000000 0.000000 10.000000 
Rope1_Seg02 0.000000 0.000000 0.000000 0.000000 0.000000 0.000000 10.000000 
Rope1_Seg03 0.000000 0.000000 0.000000 0.000000 0.000000 0.000000 10.000000 
Rope1_Seg04 0.000000 0.000000 0.000000 0.000000 0.000000 0.000000 10.000000 
Rope1_Seg05 0.000000 0.000000 0.000000 0.000000 0.000000 0.000000 10.000000 
Rope1_Seg06 0.000000 0.000000 0.000000 0.000000 0.000000 0.000000 10.000000 
Rope1_Seg07 0.000000 0.000000 0.000000 0.000000 0.000000 0.000000 10.000000 
Rope1_Seg09 0.000000 0.000000 0.000000 0.000000 0.000000 0.000000 10.000000 
L_mid_hand01 0.000000 0.000000 0.000000 0.000000 0.000000 0.000000 10.000000 
L_mid_hand02 0.000000 0.000000 0.000000 0.000000 0.000000 0.000000 10.000000 
L_mid_hand03 0.000000 0.000000 0.000000 0.000000 0.000000 0.000000 10.000000 
null_rope02_connect 0.000000 0.000000 0.000000 0.000000 0.000000 0.000000 10.000000 
Rope2_Seg01 0.000000 0.000000 0.000000 0.000000 0.000000 0.000000 10.000000 
Rope2_Seg02 0.000000 0.000000 0.000000 0.000000 0.000000 0.000000 10.000000 
Rope2_Seg03 0.000000 0.000000 0.000000 0.000000 0.000000 0.000000 10.000000 
Rope2_Seg04 0.000000 0.000000 0.000000 0.000000 0.000000 0.000000 10.000000 
Rope2_Seg05 0.000000 0.000000 0.000000 0.000000 0.000000 0.000000 10.000000 
Rope2_Seg06 0.000000 0.000000 0.000000 0.000000 0.000000 0.000000 10.000000 
Rope2_Seg07 0.000000 0.000000 0.000000 0.000000 0.000000 0.000000 10.000000 
Rope2_Seg09 0.000000 0.000000 0.000000 0.000000 0.000000 0.000000 10.000000 
R_mid_hand01 0.000000 0.000000 0.000000 0.000000 0.000000 0.000000 10.000000 
R_mid_hand02 0.000000 0.000000 0.000000 0.000000 0.000000 0.000000 10.000000 
R_mid_hand03 0.000000 0.000000 0.000000 0.000000 0.000000 0.000000 10.000000 
spine02 0.000000 0.000000 0.000000 0.000000 0.000000 0.000000 10.000000 
spine03 0.000000 0.000000 0.000000 0.000000 0.000000 0.000000 10.000000 
pelvis 0.000000 0.000000 0.000000 0.000000 0.000000 0.000000 10.000000 
null_rope03_connect 0.000000 0.000000 0.000000 0.000000 0.000000 0.000000 10.000000 
null_rope04_connect 0.000000 0.000000 0.000000 0.000000 0.000000 0.000000 10.000000 
Rope3_Seg01 0.000000 0.000000 0.000000 0.000000 0.000000 0.000000 10.000000 
Rope3_Seg02 0.000000 0.000000 0.000000 0.000000 0.000000 0.000000 10.000000 
Rope3_Seg03 0.000000 0.000000 0.000000 0.000000 0.000000 0.000000 10.000000 
Rope3_Seg04 0.000000 0.000000 0.000000 0.000000 0.000000 0.000000 10.000000 
Rope3_Seg05 0.000000 0.000000 0.000000 0.000000 0.000000 0.000000 10.000000 
Rope3_Seg06 0.000000 0.000000 0.000000 0.000000 0.000000 0.000000 10.000000 
Rope3_Seg07 0.000000 0.000000 0.000000 0.000000 0.000000 0.000000 10.000000 
Rope3_Seg08 0.000000 0.000000 0.000000 0.000000 0.000000 0.000000 10.000000 
Rope3_Seg09 0.000000 0.000000 0.000000 0.000000 0.000000 0.000000 10.000000 
R_rear_hand01 0.000000 0.000000 0.000000 0.000000 0.000000 0.000000 10.000000 
R_rear_hand02 0.000000 0.000000 0.000000 0.000000 0.000000 0.000000 10.000000 
R_rear_hand03 0.000000 0.000000 0.000000 0.000000 0.000000 0.000000 10.000000 
Rope4_Seg01 0.000000 0.000000 0.000000 0.000000 0.000000 0.000000 10.000000 
Rope4_Seg02 0.000000 0.000000 0.000000 0.000000 0.000000 0.000000 10.000000 
Rope4_Seg03 0.000000 0.000000 0.000000 0.000000 0.000000 0.000000 10.000000 
Rope4_Seg04 0.000000 0.000000 0.000000 0.000000 0.000000 0.000000 10.000000 
Rope4_Seg05 0.000000 0.000000 0.000000 0.000000 0.000000 0.000000 10.000000 
Rope4_Seg06 0.000000 0.000000 0.000000 0.000000 0.000000 0.000000 10.000000 
Rope4_Seg07 0.000000 0.000000 0.000000 0.000000 0.000000 0.000000 10.000000 
Rope4_Seg08 0.000000 0.000000 0.000000 0.000000 0.000000 0.000000 10.000000 
Rope4_Seg09 0.000000 0.000000 0.000000 0.000000 0.000000 0.000000 10.000000 
L_rear_hand01 0.000000 0.000000 0.000000 0.000000 0.000000 0.000000 10.000000 
L_rear_hand02 0.000000 0.000000 0.000000 0.000000 0.000000 0.000000 10.000000 
L_rear_hand03 0.000000 0.000000 0.000000 0.000000 0.000000 0.000000 10.000000 
#Beginning of Data. Separated by tabs
#Fr	Tx	Ty	Tz	Rx	Ry	Rz	SF
[MASTER]
29 -0.001062 7099.518555 0.000066 0.001660 0.001660 0.001660 7099.519043
30 -0.001095 7322.604004 8.586583 0.001660 0.001660 0.001660 7322.608887
[root]
29 -164.154968 442.998383 1776.189453 -104.699852 -25.031811 -34.379513 1837.945435
30 -154.745575 406.828857 1796.510132 -104.634529 -27.473518 -36.758804 1848.487061
[chest]
29 -84.512650 -34.090519 0.000000 -2.604257 1.454038 -177.135254 91.129311
30 -84.512650 -34.090519 0.000000 -3.970942 1.800843 -177.411072 91.129311
[L_mid_tent01]
29 27.299269 22.179045 -249.918701 -22.607393 47.922550 22.029434 252.381699
30 27.299259 22.179102 -249.918732 -22.581192 46.622372 21.565540 252.381729
[R_mid_tent01]
29 23.228794 24.509907 226.238495 170.300247 -15.183558 70.627159 228.744751
30 23.228794 24.509907 226.238495 173.589661 -13.429868 64.474236 228.744751
[spine01]
29 -0.361383 -0.195265 0.000000 0.190142 0.078270 20.901608 0.410763
30 -0.361383 -0.195265 0.000000 0.166836 0.069121 21.027906 0.410763
[Bip01_Neck]
29 165.484543 71.581718 0.000119 175.896118 1.177290 24.871183 180.302734
30 165.484543 71.581718 0.000119 175.896118 1.177290 24.871183 180.302734
[L_humerus]
29 -13.983130 -135.272980 -120.471481 -8.364773 77.735214 81.700005 181.680161
30 -13.983130 -135.272980 -120.471481 -7.847339 76.736534 82.216042 181.680161
[R_humerus]
29 -13.983309 -135.273102 125.287651 92.368958 -65.578911 -5.972167 184.909012
30 -13.983309 -135.273102 125.287651 175.196716 -74.644218 -91.825417 184.909012
[weapon_bone]
29 235.964890 -300.705902 0.000000 0.000000 -89.951546 -128.212341 382.234833
30 235.964890 -300.705902 0.000000 0.000000 -89.951546 -128.212341 382.234833
[Bip01_Head]
29 233.957520 207.935333 -10.751953 -46.488136 11.976340 -56.573750 313.191345
30 233.816513 208.441910 -10.772705 -46.250362 12.797721 -55.783829 313.423431
[eye_left_bone]
29 -24.626970 125.451866 -64.772606 0.000000 -90.000000 -99.840431 143.318359
30 -24.626970 125.451866 -64.772606 0.000000 -90.000000 -99.840431 143.318359
[eye_right_bone]
29 -24.626970 125.451866 64.327362 0.000000 -89.960434 80.159386 143.117676
30 -24.626970 125.451866 64.327362 0.000000 -89.960434 80.159386 143.117676
[L_forearm]
29 322.776093 0.000000 -0.000119 0.000339 -0.002323 -106.619606 322.776093
30 322.776093 0.000000 -0.000119 0.000345 -0.002322 -106.908943 322.776093
[L_front_hand]
29 241.149185 -0.042021 -3.300071 -178.667953 -1.835447 -27.422350 241.171753
30 241.149185 -0.042021 -3.300071 -178.667953 -1.835447 -27.422350 241.171753
[L_weapon_bone]
29 156.183838 0.000000 0.000000 0.000014 0.000007 0.000001 156.183838
30 156.183838 0.000000 0.000000 0.000014 0.000007 0.000001 156.183838
[L_front_hand01_01]
29 86.095154 20.947098 -0.655860 -0.366594 -0.477154 75.385574 88.609184
30 86.095154 20.947098 -0.655860 -0.366594 -0.477154 75.385574 88.609184
[L_front_hand02_01]
29 86.935165 -11.437475 24.513514 154.403519 -59.888931 -61.371990 91.046425
30 86.935165 -11.437475 24.513514 154.403519 -59.888931 -61.371990 91.046425
[L_front_hand03_01]
29 86.637497 -14.123976 -20.424902 -153.913849 58.118122 -62.702866 90.126129
30 86.637497 -14.123976 -20.424902 -153.913849 58.118122 -62.702866 90.126129
[L_front_hand01_02]
29 71.020905 -0.000179 0.000030 0.000334 -0.002323 -106.379684 71.020905
30 71.020905 -0.000179 0.000030 0.000334 -0.002323 -106.379684 71.020905
[L_front_hand02_02]
29 71.020927 -0.000119 0.000060 0.000334 -0.002323 -106.379684 71.020927
30 71.020927 -0.000119 0.000060 0.000334 -0.002323 -106.379684 71.020927
[L_front_hand03_02]
29 71.020905 -0.000060 0.000060 0.000334 -0.002323 -106.379684 71.020905
30 71.020905 -0.000060 0.000060 0.000334 -0.002323 -106.379684 71.020905
[R_forearm]
29 322.776428 -0.000060 0.000030 0.093201 -0.189489 -27.121229 322.776428
30 322.776428 -0.000060 0.000030 0.191215 -0.092300 -65.766968 322.776428
[R_front_hand]
29 238.847015 -0.006795 2.210259 65.694069 11.839185 -22.372593 238.857239
30 238.847015 -0.006795 2.210259 58.699554 12.571147 -26.008192 238.857239
[R_weapon_bone]
29 155.664093 0.002503 -0.000030 0.003487 0.001180 -90.988930 155.664078
30 155.664093 0.002503 -0.000030 0.003487 0.001180 -90.988930 155.664078
[R_front_hand01_01]
29 87.624611 14.231146 22.918642 -154.633499 -59.950619 61.746044 91.683487
30 87.624611 14.231146 22.918642 -154.633499 -59.950619 61.746044 91.683487
[R_front_hand02_01]
29 89.356956 14.367283 -19.491137 154.602661 58.302849 63.744389 92.579636
30 89.356956 14.367283 -19.491137 154.602661 58.302849 63.744389 92.579636
[R_front_hand03_01]
29 87.286232 -22.307278 -0.143439 0.162155 -0.423168 -75.767921 90.091743
30 87.286232 -22.307278 -0.143439 0.162155 -0.423168 -75.767921 90.091743
[R_front_hand01_02]
29 71.020905 0.000060 0.000119 0.002323 -0.000334 106.381714 71.020905
30 71.020905 0.000060 0.000119 0.002323 -0.000334 106.381714 71.020905
[R_front_hand02_02]
29 71.020844 -0.000030 -0.000119 0.002323 -0.000334 106.381714 71.020836
30 71.020844 -0.000030 -0.000119 0.002323 -0.000334 106.381714 71.020836
[R_front_hand03_02]
29 71.020905 0.000000 0.000030 0.002323 -0.000334 106.381714 71.020905
30 71.020905 0.000000 0.000030 0.002323 -0.000334 106.381714 71.020905
[null_rope01_connect]
29 328.732483 0.000000 -0.000238 -172.149323 -61.545567 -84.917511 328.732483
30 328.732483 0.000000 -0.000238 -168.051254 -63.426380 -87.777496 328.732483
[Rope1_Seg01]
29 0.000000 0.000000 0.000000 12.082357 -9.838903 -93.969223 0.000000
30 0.000000 0.000000 0.000000 13.328225 -11.552728 -94.156960 0.000000
[Rope1_Seg02]
29 139.999863 -0.000179 0.000000 8.678307 2.747859 -12.152560 139.999863
30 139.999863 -0.000179 0.000000 7.309982 4.235533 -12.673718 139.999863
[Rope1_Seg03]
29 139.999924 0.000060 -0.000060 60.998474 1.785544 -29.769032 139.999924
30 139.999924 0.000060 -0.000060 66.363075 5.348252 -30.387146 139.999924
[Rope1_Seg04]
29 139.999924 -0.000060 -0.000119 56.661953 -33.053780 -21.064106 139.999924
30 139.999924 -0.000060 -0.000119 59.845394 -31.244400 -20.196365 139.999924
[Rope1_Seg05]
29 139.999832 0.000119 -0.000060 6.506083 -20.938288 5.562158 139.999832
30 139.999832 0.000119 -0.000060 6.467325 -19.205526 6.044703 139.999832
[Rope1_Seg06]
29 139.999954 0.000119 -0.000060 2.341617 -23.073065 5.766929 139.999954
30 139.999954 0.000119 -0.000060 2.838204 -23.142759 6.939929 139.999954
[Rope1_Seg07]
29 139.999985 0.000060 0.000000 -1.017014 -15.771631 5.042274 139.999985
30 139.999985 0.000060 0.000000 -0.860002 -16.608292 6.548291 139.999985
[Rope1_Seg09]
29 121.602913 0.000119 -0.000089 -89.793175 -1.359789 0.847147 121.602913
30 121.602913 0.000119 -0.000089 -89.793175 -1.359789 0.847147 121.602913
[L_mid_hand01]
29 103.859421 1.038730 8.195221 114.520287 -53.310486 -20.623234 104.187431
30 103.859421 1.038730 8.195221 114.520287 -53.310486 -20.623234 104.187431
[L_mid_hand02]
29 105.572853 -4.139662 -10.864139 -155.067673 38.166626 -52.448818 106.211075
30 105.572853 -4.139662 -10.864139 -155.067673 38.166634 -52.448826 106.211075
[L_mid_hand03]
29 104.641464 17.579376 -3.913581 -10.970130 15.317461 57.626949 106.179977
30 104.641464 17.579376 -3.913581 -10.970130 15.317461 57.626949 106.179977
[null_rope02_connect]
29 328.732849 0.000179 -0.000119 -80.161385 22.615828 50.859917 328.732849
30 328.732849 0.000179 -0.000119 -78.764084 28.333944 43.804749 328.732849
[Rope2_Seg01]
29 0.000034 -0.000425 0.000115 -23.892359 -13.857498 -6.700651 0.000442
30 0.000037 -0.000445 0.000120 -29.150223 -13.609784 0.170895 0.000463
[Rope2_Seg02]
29 139.999741 -0.000060 -0.000119 -11.595174 4.556640 13.774066 139.999756
30 139.999741 -0.000060 -0.000119 -11.909790 5.883596 17.653008 139.999756
[Rope2_Seg03]
29 140.000107 0.000030 0.000000 -14.904016 2.512578 25.986076 140.000107
30 140.000107 0.000030 0.000000 -10.238111 1.216099 21.482267 140.000107
[Rope2_Seg04]
29 139.999802 0.000000 -0.000060 -8.561152 -6.296041 28.062435 139.999802
30 139.999802 0.000000 -0.000060 -4.572183 -2.675961 15.148137 139.999802
[Rope2_Seg05]
29 139.999985 -0.000060 0.000119 -1.239532 -2.717541 17.183250 139.999985
30 139.999985 -0.000060 0.000119 -2.886195 1.662843 16.053331 139.999985
[Rope2_Seg06]
29 139.999893 -0.000030 -0.000119 2.214929 0.935526 22.069830 139.999893
30 139.999893 -0.000030 -0.000119 -1.391018 4.252951 25.030731 139.999893
[Rope2_Seg07]
29 139.999893 0.000060 -0.000060 3.961585 0.417493 18.254654 139.999893
30 139.999893 0.000060 -0.000060 0.420642 1.209336 16.838451 139.999893
[Rope2_Seg09]
29 121.338966 0.000089 -0.000060 136.879395 0.546403 -1.506368 121.338966
30 121.338966 0.000089 -0.000060 136.879395 0.546403 -1.506368 121.338966
[R_mid_hand01]
29 104.680779 11.144459 -10.335981 -39.086605 29.408752 33.883228 105.778534
30 104.680779 11.144459 -10.335981 -39.248650 29.171114 33.551922 105.778534
[R_mid_hand02]
29 104.070427 2.443552 8.231699 71.497040 -38.602627 12.329561 104.424065
30 104.070427 2.443552 8.231699 71.586517 -38.253605 12.182658 104.424065
[R_mid_hand03]
29 106.028137 -11.221827 -5.996406 -169.058853 11.488590 -43.146843 106.788818
30 106.028137 -11.221827 -5.996406 -168.987167 11.419018 -42.774643 106.788818
[spine02]
29 129.756927 0.001550 0.000119 -0.095254 -12.848163 -5.374640 129.756927
30 129.756927 0.001550 0.000119 -0.004398 -12.055676 -6.067989 129.756927
[spine03]
29 78.587753 0.087184 -5.157310 1.583954 4.094114 11.928178 78.756844
30 78.590729 0.086533 -5.128607 1.621892 4.056361 12.478350 78.757935
[pelvis]
29 169.435242 0.051022 0.000000 -0.056956 -0.244864 11.119661 169.435257
30 169.435242 0.051022 0.000000 -0.056334 -0.231261 11.460266 169.435257
[null_rope03_connect]
29 -1.257226 -2.466202 137.391083 106.192818 -30.744436 -23.340843 137.418976
30 -1.257226 -2.466202 137.391083 106.751549 -34.339432 -22.166286 137.418976
[null_rope04_connect]
29 -1.259640 -2.480268 -137.844437 106.192818 -30.744436 -23.340843 137.872513
30 -1.259640 -2.480268 -137.844437 106.751549 -34.339432 -22.166286 137.872513
[Rope3_Seg01]
29 -0.000021 -0.000471 0.000000 108.058746 -72.040573 25.368673 0.000472
30 -0.000021 -0.000487 0.000000 116.731010 -72.355103 17.874727 0.000487
[Rope3_Seg02]
29 139.999924 -0.000119 0.000060 -5.488709 5.073088 -6.052840 139.999924
30 139.999924 -0.000119 0.000060 -4.955928 3.890200 -6.276903 139.999924
[Rope3_Seg03]
29 139.999924 -0.000119 0.000119 -10.040562 9.060843 -9.075202 139.999924
30 139.999924 -0.000119 0.000119 -10.114661 7.404551 -10.063466 139.999924
[Rope3_Seg04]
29 139.999924 0.000119 0.000000 -17.592669 16.075565 -13.407607 139.999924
30 139.999924 0.000119 0.000000 -21.558193 14.684546 -16.737385 139.999924
[Rope3_Seg05]
29 139.999924 -0.000238 0.000060 -16.192247 19.270863 -10.683798 139.999924
30 139.999924 -0.000238 0.000060 -20.988331 20.356220 -12.165729 139.999924
[Rope3_Seg06]
29 139.999893 -0.000119 -0.000060 -5.682460 19.360867 2.437785 139.999893
30 139.999893 -0.000119 -0.000060 -7.999013 27.251566 4.362249 139.999893
[Rope3_Seg07]
29 139.999771 0.000060 -0.000119 3.176924 27.547132 15.234882 139.999771
30 139.999771 0.000060 -0.000119 6.824286 35.780132 18.323383 139.999771
[Rope3_Seg08]
29 139.999985 -0.000060 0.000000 5.266504 17.637297 8.174014 139.999985
30 139.999985 -0.000060 0.000000 5.713302 15.031496 5.162402 139.999985
[Rope3_Seg09]
29 90.185997 -0.000179 -0.000060 98.365555 -1.357471 -0.847052 90.185997
30 90.185997 -0.000179 -0.000060 159.792526 -1.358243 -0.846482 90.185997
[R_rear_hand01]
29 103.366196 -6.073594 -10.757982 -177.714203 24.565960 -73.910950 104.101845
30 103.366196 -6.073594 -10.757982 -177.714203 24.565960 -73.910950 104.101845
[R_rear_hand02]
29 100.509819 12.039542 -7.992327 -12.874829 36.868488 72.167213 101.543350
30 100.509819 12.039542 -7.992327 -12.874829 36.868488 72.167213 101.543350
[R_rear_hand03]
29 101.539970 5.215704 5.435467 71.484581 -71.816628 21.513813 101.819031
30 101.539970 5.215704 5.435467 71.484581 -71.816628 21.513813 101.819031
[Rope4_Seg01]
29 -0.000005 -0.000480 -0.000153 57.960167 -35.431973 -117.741264 0.000504
30 -0.000004 -0.000495 -0.000153 59.761723 -32.522438 -123.545723 0.000518
[Rope4_Seg02]
29 139.999985 0.000060 0.000119 3.036484 5.989275 12.440701 139.999985
30 139.999985 0.000060 0.000119 3.772065 6.326951 12.704043 139.999985
[Rope4_Seg03]
29 139.999924 0.000000 -0.000238 2.164735 10.724226 19.422806 139.999924
30 139.999924 0.000000 -0.000238 2.708746 9.922392 17.231997 139.999924
[Rope4_Seg04]
29 139.999985 0.000000 0.000119 -1.532718 12.169235 18.488991 139.999985
30 139.999985 0.000000 0.000119 -0.115149 10.123547 14.368210 139.999985
[Rope4_Seg05]
29 139.999802 -0.000060 -0.000119 -12.575115 6.467879 23.906103 139.999802
30 139.999802 -0.000060 -0.000119 -4.820434 7.855135 17.877060 139.999802
[Rope4_Seg06]
29 139.999924 0.000000 0.000060 -29.943586 -2.071116 29.796297 139.999924
30 139.999924 0.000000 0.000060 -19.023296 6.078286 27.434315 139.999924
[Rope4_Seg07]
29 139.999802 0.000000 0.000000 -15.038115 -7.397869 12.666989 139.999802
30 139.999802 0.000000 0.000000 -19.231190 -1.780634 17.018211 139.999802
[Rope4_Seg08]
29 139.999924 0.000000 0.000119 -7.532903 -4.882905 4.953087 139.999924
30 139.999924 0.000000 0.000119 -11.403675 -3.391761 7.465547 139.999924
[Rope4_Seg09]
29 90.185791 0.000060 0.000060 -135.617828 2.228885 0.850567 90.185791
30 90.185791 0.000060 0.000060 -135.617828 2.228885 0.850567 90.185791
[L_rear_hand01]
29 101.696655 -8.392275 -7.654577 -19.915020 -33.950905 119.950104 102.329041
30 101.696655 -8.392275 -7.654577 -19.915020 -33.950905 119.950104 102.329041
[L_rear_hand02]
29 102.726799 -1.568258 5.773216 77.862221 61.878510 165.399200 102.900848
30 102.726799 -1.568258 5.773216 77.862221 61.878510 165.399200 102.900848
[L_rear_hand03]
29 104.552910 9.721220 -10.420293 -173.099182 -23.740307 -117.327896 105.519653
30 104.552910 9.721220 -10.420293 -173.099182 -23.740307 -117.327896 105.519653
